{"title":"The.Garden.Of.Words.2013.BDRip.XviD.MP3-Insane098","uid":10026084,"size":698261865,"categoryP":"video","categoryS":"movies","magnet":"?xt=urn:btih:83e6c4bc08e4c6fb3e8642954c0279bda5a384b7&amp;dn=The.Garden.Of.Words.2013.BDRip.XviD.MP3-Insane098&amp;tr=udp%3A%2F%2Ftracker.openbittorrent.com%3A80&amp;tr=udp%3A%2F%2Fopen.demonii.com%3A1337&amp;tr=udp%3A%2F%2Ftracker.coppersurfer.tk%3A6969&amp;tr=udp%3A%2F%2Fexodus.desync.com%3A6969","seeders":1,"leechers":0,"uploader":"098765432","files":-1,"time":1398270936,"description":"The.Garden.Of.Words.2013.BDRip.XviD.MP3-Insane098 &lt;a href=&quot;\nhttp://www.imdb.com/title/tt2591814/&quot; rel=&quot;nofollow&quot; target=&quot;_NEW&quot;&gt;\nhttp://www.imdb.com/title/tt2591814/&lt;/a&gt;\n\nPlot:\nTakao, who is training to become a shoemaker, skipped school and is sketching shoes in a Japanese-style garden. He meets a mysterious woman, Yukino, who is older than him. Then, without arranging the times, the two start to see each other again and again, but only on rainy days.\n\n\nFormat                                   : AVI\nFormat/Info                              : Audio Video Interleave\nFile size                                : 663 MiB\nDuration                                 : 48mn 6s\nOverall bit rate                         : 1 928 Kbps\nWriting application                      : Lavf55.33.100\n\nVideo\nID                                       : 0\nFormat                                   : MPEG-4 Visual\nFormat profile                           : Advanced Simple@L5\nFormat settings, BVOP                    : No\nFormat settings, QPel                    : No\nFormat settings, GMC                     : No warppoints\nFormat settings, Matrix                  : Default (H.263)\nCodec ID                                 : XVID\nCodec ID/Hint                            : XviD\nDuration                                 : 48mn 6s\nBit rate                                 : 1 723 Kbps\nWidth                                    : 720 pixels\nHeight                                   : 404 pixels\nDisplay aspect ratio                     : 16:9\nOriginal display aspect ratio            : 16:9\nFrame rate                               : 23.976 fps\nColor space                              : YUV\nChroma subsampling                       : 4:2:0\nBit depth                                : 8 bits\nScan type                                : Progressive\nCompression mode                         : Lossy\nBits/(Pixel*Frame)                       : 0.247\nStream size                              : 593 MiB (89%)\nWriting library                          : XviD 65\n\nAudio\nID                                       : 1\nFormat                                   : MPEG Audio\nFormat version                           : Version 1\nFormat profile                           : Layer 3\nMode                                     : Joint stereo\nMode extension                           : MS Stereo\nCodec ID                                 : 55\nCodec ID/Hint                            : MP3\nDuration                                 : 48mn 6s\nBit rate mode                            : Constant\nBit rate                                 : 192 Kbps\nChannel count                            : 2 channels\nSampling rate                            : 48.0 KHz\nCompression mode                         : Lossy\nStream size                              : 66.1 MiB (10%)\nAlignment                                : Aligned on interleaves\nInterleave, duration                     : 24 ms (0.58 video frame)\nInterleave, preload duration             : 24 ms\nWriting library                          : LAME3.99.5\n\nScreenshots: &lt;a href=&quot;\nhttp://i1186.photobucket.com/albums/z372/Insane098/Screenshots/Screenshot1-1.png&quot; rel=&quot;nofollow&quot; target=&quot;_NEW&quot;&gt;\nhttp://i1186.photobucket.com/albums/z372/Insane098/Screenshots/Screenshot1-1.png&lt;/a&gt; &lt;a href=&quot;\nhttp://i1186.photobucket.com/albums/z372/Insane098/Screenshots/Screenshot2-1.png&quot; rel=&quot;nofollow&quot; target=&quot;_NEW&quot;&gt;\nhttp://i1186.photobucket.com/albums/z372/Insane098/Screenshots/Screenshot2-1.png&lt;/a&gt; &lt;a href=&quot;\nhttp://i1186.photobucket.com/albums/z372/Insane098/Screenshots/Screenshot3.png&quot; rel=&quot;nofollow&quot; target=&quot;_NEW&quot;&gt;\nhttp://i1186.photobucket.com/albums/z372/Insane098/Screenshots/Screenshot3.png&lt;/a&gt; &lt;a href=&quot;\nhttp://i1186.photobucket.com/albums/z372/Insane098/Screenshots/Screenshot4.png&quot; rel=&quot;nofollow&quot; target=&quot;_NEW&quot;&gt;\nhttp://i1186.photobucket.com/albums/z372/Insane098/Screenshots/Screenshot4.png&lt;/a&gt; &lt;a href=&quot;\nhttp://i1186.photobucket.com/albums/z372/Insane098/Screenshots/Screenshot5.png&quot; rel=&quot;nofollow&quot; target=&quot;_NEW&quot;&gt;\nhttp://i1186.photobucket.com/albums/z372/Insane098/Screenshots/Screenshot5.png&lt;/a&gt;","torrent":{"xt":"urn:btih:83e6c4bc08e4c6fb3e8642954c0279bda5a384b7","amp;dn":"The.Garden.Of.Words.2013.BDRip.XviD.MP3-Insane098","amp;tr":["udp%3A%2F%2Ftracker.openbittorrent.com%3A80","udp%3A%2F%2Fopen.demonii.com%3A1337","udp%3A%2F%2Ftracker.coppersurfer.tk%3A6969","udp%3A%2F%2Fexodus.desync.com%3A6969"],"infoHash":"83e6c4bc08e4c6fb3e8642954c0279bda5a384b7","infoHashBuffer":{"type":"Buffer","data":[131,230,196,188,8,228,198,251,62,134,66,149,76,2,121,189,165,163,132,183]},"announce":[],"urlList":[]}}